<svg xmlns="http://www.w3.org/2000/svg" xmlns:xlink="http://www.w3.org/1999/xlink" width="1920" zoomAndPan="magnify" viewBox="430 320 580 200" height="1080" preserveAspectRatio="xMidYMid meet" version="1.0"><defs><g/></defs><g fill="#2b7fff" fill-opacity="1"><g transform="translate(439.207023, 466.874997)"><g><path d="M 26.109375 -114.65625 L 99.3125 -69.359375 L 99.3125 -48.203125 L 26.390625 -2.90625 L 13.015625 -23.03125 L 73.84375 -58.78125 L 13.015625 -93.421875 Z M 26.109375 -114.65625 "/></g></g></g><g fill="#2b7fff" fill-opacity="1"><g transform="translate(551.524198, 466.874997)"><g><path d="M 105.109375 -90.328125 C 105.109375 -84.148438 103.953125 -78.75 101.640625 -74.125 C 99.335938 -69.507812 96.21875 -65.609375 92.28125 -62.421875 C 88.351562 -59.242188 83.957031 -56.6875 79.09375 -54.75 L 113.078125 0 L 78.34375 0 L 50.265625 -49.609375 L 41.5625 -49.609375 L 41.5625 0 L 10.859375 0 L 10.859375 -129.734375 L 51.671875 -129.734375 C 69.328125 -129.734375 82.644531 -126.519531 91.625 -120.09375 C 100.613281 -113.664062 105.109375 -103.742188 105.109375 -90.328125 Z M 73.484375 -90.328125 C 73.484375 -96.566406 71.65625 -101.101562 68 -103.9375 C 64.351562 -106.78125 58.941406 -108.203125 51.765625 -108.203125 L 41.5625 -108.203125 L 41.5625 -70.671875 L 52.984375 -70.671875 C 59.660156 -70.671875 64.742188 -72.226562 68.234375 -75.34375 C 71.734375 -78.46875 73.484375 -83.460938 73.484375 -90.328125 Z M 73.484375 -90.328125 "/></g></g></g><g fill="#2b7fff" fill-opacity="1"><g transform="translate(663.841373, 466.874997)"><g><path d="M 108.109375 -64.953125 C 108.109375 -51.222656 106.140625 -39.257812 102.203125 -29.0625 C 98.273438 -18.863281 92.457031 -10.9375 84.75 -5.28125 C 77.050781 0.363281 67.519531 3.1875 56.15625 3.1875 C 44.863281 3.1875 35.347656 0.425781 27.609375 -5.09375 C 19.867188 -10.625 14.035156 -18.472656 10.109375 -28.640625 C 6.179688 -38.816406 4.21875 -50.921875 4.21875 -64.953125 C 4.21875 -78.679688 6.179688 -90.628906 10.109375 -100.796875 C 14.035156 -110.972656 19.867188 -118.882812 27.609375 -124.53125 C 35.347656 -130.175781 44.863281 -133 56.15625 -133 C 67.519531 -133 77.050781 -130.253906 84.75 -124.765625 C 92.457031 -119.273438 98.273438 -111.441406 102.203125 -101.265625 C 106.140625 -91.097656 108.109375 -78.992188 108.109375 -64.953125 Z M 76.65625 -64.953125 C 76.65625 -80.929688 75.0625 -92.539062 71.875 -99.78125 C 68.695312 -107.019531 63.457031 -110.640625 56.15625 -110.640625 C 48.851562 -110.640625 43.609375 -107.003906 40.421875 -99.734375 C 37.242188 -92.460938 35.65625 -80.867188 35.65625 -64.953125 C 35.65625 -48.984375 37.273438 -37.378906 40.515625 -30.140625 C 43.765625 -22.898438 48.976562 -19.28125 56.15625 -19.28125 C 63.644531 -19.28125 68.929688 -22.945312 72.015625 -30.28125 C 75.109375 -37.613281 76.65625 -49.171875 76.65625 -64.953125 Z M 76.65625 -64.953125 "/></g></g></g><g fill="#2b7fff" fill-opacity="1"><g transform="translate(776.158559, 466.874997)"><g><path d="M 75.25 -39.21875 C 75.25 -43.769531 74.359375 -47.375 72.578125 -50.03125 C 70.804688 -52.6875 68.3125 -54.570312 65.09375 -55.6875 C 61.882812 -56.8125 58.128906 -57.375 53.828125 -57.375 L 41.1875 -57.375 L 41.1875 -22.375 L 52.515625 -22.375 C 55.503906 -22.375 58.351562 -22.59375 61.0625 -23.03125 C 63.78125 -23.46875 66.21875 -24.273438 68.375 -25.453125 C 70.53125 -26.640625 72.210938 -28.34375 73.421875 -30.5625 C 74.640625 -32.78125 75.25 -35.664062 75.25 -39.21875 Z M 70.390625 -93.515625 C 70.390625 -98.628906 68.78125 -102.320312 65.5625 -104.59375 C 62.351562 -106.875 57.378906 -108.015625 50.640625 -108.015625 L 41.1875 -108.015625 L 41.1875 -77.96875 L 51.578125 -77.96875 C 58.191406 -77.96875 62.976562 -79.179688 65.9375 -81.609375 C 68.90625 -84.046875 70.390625 -88.015625 70.390625 -93.515625 Z M 106.890625 -38 C 106.890625 -30.507812 105.453125 -24.300781 102.578125 -19.375 C 99.710938 -14.445312 95.785156 -10.578125 90.796875 -7.765625 C 85.804688 -4.960938 80.109375 -2.96875 73.703125 -1.78125 C 67.304688 -0.59375 60.585938 0 53.546875 0 L 10.484375 0 L 10.484375 -129.734375 L 51.578125 -129.734375 C 58.253906 -129.734375 64.570312 -129.1875 70.53125 -128.09375 C 76.488281 -127 81.773438 -125.1875 86.390625 -122.65625 C 91.015625 -120.132812 94.648438 -116.734375 97.296875 -112.453125 C 99.953125 -108.179688 101.28125 -102.894531 101.28125 -96.59375 C 101.28125 -91.414062 100.1875 -86.9375 98 -83.15625 C 95.8125 -79.382812 92.90625 -76.296875 89.28125 -73.890625 C 85.664062 -71.492188 81.738281 -69.765625 77.5 -68.703125 C 82.113281 -67.953125 86.679688 -66.5 91.203125 -64.34375 C 95.734375 -62.195312 99.476562 -59 102.4375 -54.75 C 105.40625 -50.507812 106.890625 -44.925781 106.890625 -38 Z M 106.890625 -38 "/></g></g></g><g fill="#2b7fff" fill-opacity="1"><g transform="translate(888.475723, 466.874997)"><g><path d="M 9.359375 34.8125 L 9.359375 11.609375 L 102.96875 11.609375 L 102.96875 34.8125 Z M 9.359375 34.8125 "/></g></g></g></svg>
