<svg width="128" height="128" viewBox="0 0 128 128" xmlns="http://www.w3.org/2000/svg">
  <defs>
    <linearGradient id="grad" x1="0%" y1="0%" x2="100%" y2="100%">
      <stop offset="0%" style="stop-color:#007ACC;stop-opacity:1" />
      <stop offset="100%" style="stop-color:#005A9E;stop-opacity:1" />
    </linearGradient>
  </defs>
  <!-- Background with rounded corners -->
  <rect width="128" height="128" rx="28" fill="url(#grad)"/>
  
  <!-- Chat bubble -->
  <path d="M 35 42 C 35 36 40 31 46 31 L 78 31 C 84 31 89 36 89 42 L 89 66 C 89 72 84 77 78 77 L 56 77 L 42 89 L 42 77 C 38 77 35 74 35 70 Z" fill="white" opacity="0.95"/>
  
  <!-- Message lines inside bubble -->
  <line x1="46" y1="45" x2="78" y2="45" stroke="#007ACC" stroke-width="3.5" stroke-linecap="round"/>
  <line x1="46" y1="54" x2="70" y2="54" stroke="#007ACC" stroke-width="3.5" stroke-linecap="round"/>
  <line x1="46" y1="63" x2="75" y2="63" stroke="#007ACC" stroke-width="3.5" stroke-linecap="round"/>
  
  <!-- AI sparkle accent -->
  <circle cx="90" cy="38" r="10" fill="#FFD700"/>
  <path d="M 90 28 L 91.5 35 L 98 36.5 L 91.5 38 L 90 45 L 88.5 38 L 82 36.5 L 88.5 35 Z" fill="white" opacity="0.95"/>
</svg>

